#!OML:ASF G:\JayActor3\Patient Classification 1\Patient 1\Session 6\male.ASF
:FULLY-SPECIFIED
:DEGREES
1593
root 9.06586 16.3467 -1.3315 3.46729 -63.1482 -9.1052
lowerback 6.97224 3.28038 1.23811
upperback -0.477473 4.4927 0.445719
thorax -4.3387 2.20174 -0.705075
lowerneck -5.08749 -0.944495 0.122498
upperneck 20.3213 2.32239 -22.3296
head 7.31373 -0.980856 -7.40502
rclavicle -6.27414e-014 1.27222e-014
rhumerus -24.4499 22.8293 -97.9244
rradius 117.225
rwrist -84.9112
rhand -23.1608 1.75366
rfingers 7.12502
rthumb 3.2878 -28.2007
lclavicle -6.27414e-014 1.27222e-014
lhumerus -51.8065 -16.0117 88.9539
lradius 39.4696
lwrist 24.5306
lhand -9.31384 3.09003
lfingers 7.12502
lthumb 16.6443 32.3964
rfemur -10.5309 -4.67939 15.7982
rtibia 39.7579
rfoot -24.2361 -18.4836
rtoes 2.86019
lfemur -2.10378 11.7946 -17.657
ltibia 22.798
lfoot -24.2432 17.0108
ltoes 12.6731
1594
root 9.05904 16.3453 -1.33856 3.32918 -62.9757 -8.91302
lowerback 6.92226 3.28556 1.22364
upperback -0.451007 4.49626 0.425774
thorax -4.28247 2.20442 -0.713658
lowerneck -5.07692 -0.948816 0.122358
upperneck 20.2859 2.31333 -22.3368
head 7.29894 -0.981202 -7.40552
rclavicle 1.20762e-014 -2.38542e-015
rhumerus -24.41 22.8432 -97.9128
rradius 117.263
rwrist -84.847
rhand -23.1687 1.7498
rfingers 7.12502
rthumb 3.28014 -28.2047
lclavicle 1.20762e-014 -2.38542e-015
lhumerus -51.7926 -16.0089 88.9742
lradius 39.4984
lwrist 24.5296
lhand -9.31503 3.08904
lfingers 7.12502
lthumb 16.6432 32.3955
rfemur -10.3874 -4.64433 15.8432
rtibia 39.5505
rfoot -24.6218 -18.5954
rtoes 3.03536
lfemur -2.18406 11.8637 -17.6807
ltibia 22.8442
lfoot -24.1127 16.8552
ltoes 12.4934
1595
root 9.05178 16.3439 -1.3457 3.18811 -62.8012 -8.7246
lowerback 6.87371 3.28633 1.21626
upperback -0.41928 4.49454 0.407563
thorax -4.22129 2.2044 -0.723715
lowerneck -5.06751 -0.951845 0.124878
upperneck 20.2519 2.30626 -22.3459
head 7.28513 -0.980782 -7.4072
rclavicle 4.11236e-015 5.1684e-015
rhumerus -24.3642 22.8649 -97.9058
rradius 117.293
rwrist -84.7984
rhand -23.1876 1.74351
rfingers 7.12502
rthumb 3.26189 -28.2113
lclavicle 4.11236e-015 5.1684e-015
lhumerus -51.7635 -15.9849 88.9881
lradius 39.5071
lwrist 24.5255
lhand -9.32354 3.10685
lfingers 7.12502
lthumb 16.635 32.414
rfemur -10.237 -4.60001 15.8858
rtibia 39.318
rfoot -25.0858 -18.7195
rtoes 3.38938
lfemur -2.25201 11.958 -17.6956
ltibia 22.8833
lfoot -23.9585 16.6787
ltoes 12.3347
1596
root 9.0441 16.3424 -1.35288 3.04349 -62.6249 -8.53728
lowerback 6.83247 3.2842 1.21891
upperback -0.389168 4.4899 0.388058
thorax -4.16509 2.20261 -0.740894
lowerneck -5.05697 -0.956009 0.131849
upperneck 20.2282 2.2989 -22.3571
head 7.27441 -0.981131 -7.41111
rclavicle 7.83957e-015 1.07344e-014
rhumerus -24.3251 22.8865 -97.9082
rradius 117.317
rwrist -84.7652
rhand -23.211 1.74361
rfingers 7.12502
rthumb 3.23929 -28.2115
lclavicle 7.83957e-015 1.07344e-014
lhumerus -51.7269 -15.9425 88.9952
lradius 39.496
lwrist 24.5173
lhand -9.33084 3.13765
lfingers 7.12502
lthumb 16.6279 32.4454
rfemur -10.0834 -4.56374 15.9227
rtibia 39.0692
rfoot -25.5973 -18.8443
rtoes 3.90624
lfemur -2.31171 12.0652 -17.7068
ltibia 22.9181
lfoot -23.7775 16.4972
ltoes 12.1837
1597
root 9.03611 16.3411 -1.36019 2.88757 -62.4479 -8.34449
lowerback 6.804 3.28134 1.22787
upperback -0.362584 4.48498 0.366648
thorax -4.11913 2.20039 -0.764472
lowerneck -5.04606 -0.96353 0.140786
upperneck 20.2205 2.28949 -22.3705
head 7.26859 -0.983797 -7.41739
rclavicle -3.58806e-014 1.39149e-014
rhumerus -24.2968 22.9017 -97.9159
rradius 117.336
rwrist -84.7465
rhand -23.2332 1.74804
rfingers 7.12502
rthumb 3.21792 -28.2074
lclavicle -3.58806e-014 1.39149e-014
lhumerus -51.6821 -15.8853 88.9977
lradius 39.4584
lwrist 24.5016
lhand -9.35281 3.18438
lfingers 7.12502
lthumb 16.6068 32.4939
rfemur -9.92586 -4.54616 15.9501
rtibia 38.8132
rfoot -26.1275 -18.9619
rtoes 4.56385
lfemur -2.36081 12.1759 -17.7184
ltibia 22.9492
lfoot -23.5822 16.3098
ltoes 12.0739
1598
root 9.02766 16.3398 -1.36797 2.73669 -62.2716 -8.16333
lowerback 6.7888 3.27712 1.24486
upperback -0.341803 4.47929 0.347032
thorax -4.08622 2.19745 -0.791667
lowerneck -5.03181 -0.972584 0.148463
upperneck 20.2265 2.28018 -22.3855
head 7.26665 -0.987668 -7.42487
rclavicle -1.12649e-013 1.43125e-014
rhumerus -24.284 22.9136 -97.9289
rradius 117.354
rwrist -84.7393
rhand -23.2477 1.75487
rfingers 7.12502
rthumb 3.20393 -28.2008
lclavicle -1.12649e-013 1.43125e-014
lhumerus -51.6405 -15.8102 88.9962
lradius 39.4087
lwrist 24.4784
lhand -9.39556 3.27464
lfingers 7.12502
lthumb 16.5656 32.5876
rfemur -9.76621 -4.54249 15.9805
rtibia 38.5598
rfoot -26.6677 -19.0657
rtoes 5.32459
lfemur -2.40226 12.2802 -17.7237
ltibia 22.9771
lfoot -23.3708 16.1336
ltoes 11.9892
1599
root 9.01887 16.3389 -1.37621 2.58423 -62.0947 -7.98443
lowerback 6.78551 3.27437 1.26627
upperback -0.327272 4.47621 0.3274
thorax -4.06611 2.19554 -0.822603
lowerneck -5.01587 -0.986151 0.156028
upperneck 20.2521 2.26736 -22.399
head 7.27027 -0.994547 -7.4332
rclavicle 3.51725e-014 -5.1684e-015
rhumerus -24.2838 22.9116 -97.9411
rradius 117.373
rwrist -84.7409
rhand -23.2569 1.75566
rfingers 7.12502
rthumb 3.19503 -28.2001
lclavicle 3.51725e-014 -5.1684e-015
lhumerus -51.6174 -15.7506 89.0115
lradius 39.372
lwrist 24.4856
lhand -9.49184 3.45939
lfingers 7.12502
lthumb 16.4729 32.78
rfemur -9.60451 -4.55072 16.0111
rtibia 38.3169
rfoot -27.2007 -19.1617
rtoes 6.11166
lfemur -2.43862 12.3697 -17.7294
ltibia 23.0022
lfoot -23.1482 15.976
ltoes 11.9269
1600
root 9.00971 16.3382 -1.38502 2.42648 -61.922 -7.80358
lowerback 6.78623 3.27246 1.28329
upperback -0.312894 4.47411 0.311592
thorax -4.04905 2.19422 -0.84754
lowerneck -5.00083 -1.00155 0.158497
upperneck 20.2876 2.25425 -22.413
head 7.27735 -1.00293 -7.44153
rclavicle -4.13596e-014 -1.19271e-015
rhumerus -24.2839 22.9078 -97.9456
rradius 117.391
rwrist -84.7434
rhand -23.2609 1.74448
rfingers 7.12502
rthumb 3.19117 -28.2114
lclavicle -4.13596e-014 -1.19271e-015
lhumerus -51.6085 -15.7029 89.0475
lradius 39.3476
lwrist 24.5212
lhand -9.61888 3.70988
lfingers 7.12502
lthumb 16.3506 33.0406
rfemur -9.44251 -4.57093 16.0387
rtibia 38.0921
rfoot -27.7064 -19.2543
rtoes 6.8604
lfemur -2.46907 12.4314 -17.7399
ltibia 23.0243
lfoot -22.9305 15.8441
ltoes 11.9125
1601
root 9.00029 16.338 -1.39433 2.27952 -61.7544 -7.63609
lowerback 6.78613 3.27188 1.30315
upperback -0.296872 4.47421 0.30154
thorax -4.03002 2.19402 -0.868235
lowerneck -4.98667 -1.01821 0.158938
upperneck 20.3295 2.24044 -22.4257
head 7.28658 -1.01224 -7.44952
rclavicle 1.09667e-013 -3.18055e-015
rhumerus -24.2772 22.9047 -97.9429
rradius 117.406
rwrist -84.7406
rhand -23.2678 1.72997
rfingers 7.12502
rthumb 3.18452 -28.226
lclavicle 1.09667e-013 -3.18055e-015
lhumerus -51.6066 -15.6782 89.109
lradius 39.3245
lwrist 24.5886
lhand -9.77604 4.00507
lfingers 7.12502
lthumb 16.1993 33.3482
rfemur -9.28244 -4.58883 16.0733
rtibia 37.8891
rfoot -28.1837 -19.3486
rtoes 7.51835
lfemur -2.49643 12.4639 -17.7486
ltibia 23.0434
lfoot -22.7215 15.7414
ltoes 11.9364
1602
root 8.99073 16.338 -1.40401 2.13582 -61.5927 -7.4709
lowerback 6.78471 3.27179 1.32415
upperback -0.280464 4.47514 0.294501
thorax -4.00999 2.19425 -0.886442
lowerneck -4.97438 -1.03474 0.156529
upperneck 20.3767 2.2275 -22.4347
head 7.29804 -1.02159 -7.45595
rclavicle -3.37934e-015 -8.34896e-015
rhumerus -24.2658 22.9029 -97.94
rradius 117.418
rwrist -84.7262
rhand -23.2762 1.7116
rfingers 7.12502
rthumb 3.17637 -28.2445
lclavicle -3.37934e-015 -8.34896e-015
lhumerus -51.6162 -15.6598 89.182
lradius 39.3048
lwrist 24.663
lhand -9.91396 4.28035
lfingers 7.12502
lthumb 16.0665 33.6343
rfemur -9.13038 -4.6211 16.104
rtibia 37.7102
rfoot -28.5939 -19.4516
rtoes 7.99094
lfemur -2.52393 12.4803 -17.7602
ltibia 23.0604
lfoot -22.5181 15.6582
ltoes 11.9689
1603
root 8.9811 16.3381 -1.41397 1.99846 -61.4404 -7.31233
lowerback 6.78212 3.27249 1.34854
upperback -0.263357 4.4775 0.291092
thorax -3.98859 2.19518 -0.902825
lowerneck -4.96141 -1.051 0.154345
upperneck 20.4261 2.21477 -22.4414
head 7.31007 -1.0308 -7.4617
rclavicle -1.66482e-014 -8.34896e-015
rhumerus -24.2488 22.9061 -97.9381
rradius 117.429
rwrist -84.6972
rhand -23.2852 1.68975
rfingers 7.12502
rthumb 3.16771 -28.2665
lclavicle -1.66482e-014 -8.34896e-015
lhumerus -51.6385 -15.6384 89.2599
lradius 39.2861
lwrist 24.716
lhand -10.0133 4.47713
lfingers 7.12502
lthumb 15.9709 33.8387
rfemur -8.98764 -4.66695 16.13
rtibia 37.553
rfoot -28.929 -19.5588
rtoes 8.29225
lfemur -2.55064 12.4898 -17.7711
ltibia 23.0765
lfoot -22.3234 15.5886
ltoes 12.0003
1604
root 8.97141 16.3381 -1.42421 1.87435 -61.2991 -7.16702
lowerback 6.77702 3.27375 1.37977
upperback -0.245628 4.48125 0.291615
thorax -3.9649 2.19674 -0.918902
lowerneck -4.948 -1.06749 0.154039
upperneck 20.4743 2.20117 -22.4484
head 7.3215 -1.04021 -7.46788
rclavicle 2.85877e-014 9.14409e-015
rhumerus -24.2262 22.9148 -97.9402
rradius 117.437
rwrist -84.6556
rhand -23.289 1.6729
rfingers 7.12502
rthumb 3.16402 -28.2834
lclavicle 2.85877e-014 9.14409e-015
lhumerus -51.6643 -15.5986 89.3296
lradius 39.2585
lwrist 24.7296
lhand -10.0524 4.569
lfingers 7.12502
lthumb 15.9332 33.9336
rfemur -8.85702 -4.71409 16.1553
rtibia 37.4142
rfoot -29.2002 -19.6688
rtoes 8.47242
lfemur -2.57693 12.489 -17.7787
ltibia 23.0918
lfoot -22.1427 15.5355
ltoes 12.0274
1605
root 8.9617 16.3381 -1.43481 1.75744 -61.1718 -7.02969
lowerback 6.7713 3.2763 1.4141
upperback -0.226557 4.48702 0.295076
thorax -3.93942 2.1993 -0.933773
lowerneck -4.9332 -1.08471 0.15965
upperneck 20.517 2.18514 -22.4582
head 7.33048 -1.05005 -7.47593
rclavicle -4.44781e-014 0
rhumerus -24.2028 22.9282 -97.9476
rradius 117.447
rwrist -84.606
rhand -23.2859 1.65992
rfingers 7.12502
rthumb 3.16701 -28.2963
lclavicle -4.44781e-014 0
lhumerus -51.7046 -15.5639 89.4054
lradius 39.241
lwrist 24.7316
lhand -10.0716 4.59454
lfingers 7.12502
lthumb 15.9147 33.9606
rfemur -8.7379 -4.75929 16.1768
rtibia 37.2886
rfoot -29.4128 -19.7782
rtoes 8.57556
lfemur -2.60041 12.4835 -17.7841
ltibia 23.1051
lfoot -21.9754 15.4963
ltoes 12.0297
1606
root 8.95189 16.338 -1.44584 1.64547 -61.0581 -6.89824
lowerback 6.76413 3.27843 1.44618
upperback -0.205324 4.49219 0.303907
thorax -3.9115 2.20171 -0.941636
lowerneck -4.91764 -1.1014 0.167005
upperneck 20.5509 2.16865 -22.4728
head 7.33641 -1.05973 -7.48553
rclavicle -5.77842e-014 7.95139e-016
rhumerus -24.1853 22.9519 -97.9555
rradius 117.468
rwrist -84.5551
rhand -23.2754 1.65055
rfingers 7.12502
rthumb 3.17713 -28.3055
lclavicle -5.77842e-014 7.95139e-016
lhumerus -51.7456 -15.5072 89.4757
lradius 39.2221
lwrist 24.7109
lhand -10.0869 4.58185
lfingers 7.12502
lthumb 15.8999 33.9491
rfemur -8.62854 -4.79857 16.1934
rtibia 37.171
rfoot -29.5857 -19.8708
rtoes 8.67383
lfemur -2.61878 12.4653 -17.7891
ltibia 23.1143
lfoot -21.8276 15.4754
ltoes 12.0105
1607
root 8.94204 16.338 -1.45729 1.5348 -60.9568 -6.76564
lowerback 6.75469 3.2817 1.4767
upperback -0.183488 4.49873 0.31403
thorax -3.88187 2.20487 -0.947268
lowerneck -4.90304 -1.12015 0.175421
upperneck 20.5799 2.14839 -22.4882
head 7.34042 -1.07088 -7.49552
rclavicle -6.12008e-014 -5.96354e-015
rhumerus -24.1794 22.9758 -97.9658
rradius 117.506
rwrist -84.5084
rhand -23.266 1.6539
rfingers 7.12502
rthumb 3.18624 -28.302
lclavicle -6.12008e-014 -5.96354e-015
lhumerus -51.7744 -15.4326 89.5408
lradius 39.1948
lwrist 24.6941
lhand -10.1338 4.61653
lfingers 7.12502
lthumb 15.8548 33.9874
rfemur -8.52905 -4.81737 16.2055
rtibia 37.059
rfoot -29.7407 -19.9457
rtoes 8.79596
lfemur -2.63589 12.4341 -17.7985
ltibia 23.1191
lfoot -21.6945 15.4787
ltoes 11.9453
